<?xml version="1.0" standalone="no"?>
<!DOCTYPE svg PUBLIC "-//W3C//DTD SVG 20010904//EN"
 "http://www.w3.org/TR/2001/REC-SVG-20010904/DTD/svg10.dtd">
<svg version="1.0" xmlns="http://www.w3.org/2000/svg"
 width="1041.000000pt" height="983.000000pt" viewBox="0 0 1041.000000 983.000000"
 preserveAspectRatio="xMidYMid meet">

<g transform="translate(0.000000,983.000000) scale(0.100000,-0.100000)"
fill="#000000" stroke="none">
<path d="M5113 9449 c-23 -12 -75 -49 -115 -84 -40 -35 -120 -105 -178 -155
-383 -333 -967 -684 -1475 -885 -479 -190 -974 -320 -1530 -400 -252 -36 -333
-60 -416 -121 -61 -45 -127 -118 -147 -164 -42 -97 -42 -115 -41 -1480 1
-1306 5 -1508 33 -1669 14 -80 63 -261 104 -385 l17 -51 124 -3 c69 -1 130 -1
137 2 8 3 -5 61 -42 188 -74 255 -103 390 -114 536 -11 143 -14 2438 -4 2596
7 104 22 149 63 193 46 48 97 62 396 108 806 123 1568 373 2169 709 358 201
721 461 1039 744 33 28 67 52 76 52 9 0 95 -66 191 -146 642 -537 1292 -887
2092 -1128 316 -95 599 -158 1028 -231 263 -44 276 -48 326 -99 73 -76 69 9
69 -1441 0 -1364 -2 -1437 -45 -1618 -11 -45 -44 -167 -74 -270 -38 -133 -50
-190 -42 -193 7 -3 68 -3 137 -2 l124 3 48 165 c110 382 110 390 111 1990 1
1324 1 1336 -44 1438 -23 52 -106 141 -169 181 -68 44 -182 77 -343 101 -684
103 -1281 273 -1788 510 -458 214 -921 509 -1249 796 -197 172 -215 186 -266
210 -64 30 -143 31 -202 3z"/>
<path d="M4670 7902 c-72 -21 -167 -112 -204 -197 l-26 -57 0 -792 c0 -518 4
-804 11 -829 17 -62 43 -79 116 -75 55 3 67 8 98 38 l35 34 0 750 c0 511 4
764 11 790 6 22 24 53 40 69 l29 29 388 -4 c420 -4 446 -8 485 -59 19 -26 19
-50 23 -700 2 -371 6 -720 8 -776 7 -155 28 -181 137 -171 59 6 77 21 90 74 6
22 13 303 16 642 3 331 8 602 11 602 8 0 162 -70 237 -107 98 -50 256 -156
345 -232 329 -283 550 -659 644 -1101 34 -156 45 -260 55 -490 5 -123 13 -205
21 -222 19 -40 65 -57 186 -67 61 -6 123 -15 139 -21 62 -23 109 -91 120 -172
4 -23 8 -53 11 -66 l4 -22 -1027 0 c-566 -1 -1072 -5 -1126 -9 -109 -9 -138
-23 -171 -82 -25 -46 -16 -95 25 -137 l31 -32 1200 0 c1337 0 1220 -7 1274 72
l29 41 0 176 0 176 -32 68 c-64 136 -186 230 -336 261 -37 7 -71 16 -74 20 -3
3 -9 67 -14 143 -29 467 -158 866 -393 1218 -153 230 -404 475 -646 630 -88
57 -296 161 -395 199 -113 44 -115 45 -115 86 0 100 -73 227 -157 272 -80 44
-135 48 -607 47 -373 0 -449 -3 -496 -17z"/>
<path d="M4280 7503 c-321 -147 -523 -279 -724 -473 -332 -319 -563 -740 -651
-1184 -24 -123 -55 -392 -55 -481 l0 -42 -85 -21 c-147 -36 -269 -131 -332
-260 -27 -56 -28 -60 -28 -232 0 -164 1 -178 23 -218 43 -80 10 -77 757 -80
363 -2 674 0 692 3 66 12 101 132 56 193 -41 55 -47 56 -685 60 l-588 4 0 64
c0 145 76 202 292 219 90 8 137 33 150 80 5 17 13 125 18 240 12 291 44 481
114 683 72 209 130 321 266 514 81 116 295 331 420 425 106 78 289 187 353
209 75 26 75 26 78 162 2 87 -1 125 -11 136 -15 19 -16 19 -60 -1z"/>
<path d="M4620 5398 c-41 -21 -48 -31 -81 -108 -36 -84 -185 -479 -442 -1175
l-133 -360 -1515 -5 c-1424 -5 -1516 -6 -1542 -23 -31 -20 -58 -68 -59 -105
-1 -15 9 -46 20 -69 41 -80 -88 -73 1383 -73 723 0 1439 3 1590 7 l274 6 25
27 c28 30 37 52 267 660 187 493 233 611 243 623 7 8 35 -73 89 -258 33 -116
285 -1025 346 -1250 198 -734 217 -799 251 -867 38 -76 89 -89 147 -39 43 38
71 90 156 292 109 258 337 781 361 829 l22 44 19 -25 c18 -23 55 -89 339 -591
67 -120 138 -235 156 -257 43 -49 88 -66 141 -52 71 19 103 66 296 436 74 143
152 292 174 330 l38 70 230 6 c127 4 639 7 1138 8 576 1 915 5 927 11 32 17
60 74 60 123 0 36 -7 54 -33 89 l-33 43 -1190 0 c-654 0 -1200 -3 -1214 -7
-32 -9 -93 -106 -248 -398 -163 -306 -166 -310 -177 -310 -5 0 -59 87 -119
193 -399 702 -416 730 -446 754 -21 17 -85 16 -121 -3 -53 -27 -84 -90 -357
-714 -113 -257 -143 -322 -148 -317 -2 2 -24 75 -48 163 -143 515 -216 781
-310 1129 -58 215 -141 521 -184 680 -44 160 -85 317 -92 350 -10 50 -20 68
-60 108 -54 54 -75 58 -140 25z"/>
<path d="M1857 3193 c-78 -4 -79 -4 -73 -28 16 -62 213 -354 413 -612 50 -65
181 -212 290 -328 491 -518 886 -840 1518 -1235 452 -283 962 -542 1144 -581
100 -21 198 6 436 122 522 253 1136 640 1571 989 402 322 804 726 1072 1078
141 185 372 543 372 575 0 15 -16 17 -138 17 l-138 0 -111 -163 c-199 -292
-341 -463 -623 -751 -500 -509 -985 -876 -1697 -1284 -186 -107 -550 -288
-620 -308 -53 -15 -58 -15 -118 4 -84 28 -410 182 -595 281 -486 262 -963 589
-1390 955 -139 120 -554 534 -667 667 -121 142 -221 276 -332 444 -52 77 -100
146 -109 153 -15 12 -32 12 -205 5z"/>
</g>
</svg>
