<?xml version="1.0" standalone="no"?>
<!DOCTYPE svg PUBLIC "-//W3C//DTD SVG 20010904//EN"
 "http://www.w3.org/TR/2001/REC-SVG-20010904/DTD/svg10.dtd">
<svg version="1.0" xmlns="http://www.w3.org/2000/svg"
 width="1497.000000pt" height="375.000000pt" viewBox="0 0 1497.000000 375.000000"
 preserveAspectRatio="xMidYMid meet">

<g transform="translate(0.000000,375.000000) scale(0.100000,-0.100000)"
fill="#000000" stroke="none">
<path d="M1739 3419 c-130 -19 -261 -80 -341 -160 -89 -89 -127 -197 -135
-379 -13 -325 108 -500 404 -582 75 -21 104 -22 673 -28 622 -7 634 -7 701
-53 55 -37 74 -80 74 -172 0 -130 -43 -189 -160 -220 -51 -13 -168 -15 -833
-15 -839 0 -814 2 -840 -55 -14 -31 -16 -223 -2 -259 5 -14 24 -35 42 -46 32
-19 51 -20 813 -20 454 0 818 4 870 10 180 20 309 75 400 171 91 95 131 203
141 379 15 269 -80 459 -276 553 -138 66 -167 68 -810 71 -498 3 -582 6 -626
20 -102 32 -144 91 -144 204 0 99 27 147 105 187 l59 30 751 5 c702 5 753 6
778 23 16 10 32 29 37 43 16 42 12 211 -6 245 -31 61 -10 59 -851 58 -422 -1
-793 -5 -824 -10z"/>
<path d="M4303 3410 c-67 -40 -64 -10 -61 -743 4 -656 4 -663 26 -737 63 -207
193 -349 393 -429 155 -61 176 -64 729 -68 550 -5 662 1 807 43 279 81 441
272 482 567 7 49 11 304 11 678 0 661 1 650 -62 689 -28 17 -50 20 -143 20
-120 0 -145 -8 -179 -53 -21 -28 -21 -39 -26 -640 -5 -553 -7 -617 -24 -667
-40 -122 -110 -193 -230 -234 -57 -19 -88 -20 -519 -24 -297 -2 -484 1 -530 8
-144 21 -251 100 -299 219 -23 56 -23 60 -28 676 -5 575 -6 622 -23 653 -26
48 -68 62 -189 62 -85 0 -109 -4 -135 -20z"/>
<path d="M7483 3415 c-17 -7 -40 -26 -50 -41 -17 -27 -18 -66 -18 -674 0 -590
2 -652 18 -725 59 -258 230 -431 495 -504 138 -38 241 -43 792 -38 567 4 578
5 738 63 202 73 340 227 403 449 23 79 23 89 27 720 3 696 3 699 -51 739 -25
19 -42 21 -157 21 -114 0 -130 -2 -150 -20 -50 -44 -50 -46 -50 -642 0 -342
-4 -583 -11 -623 -29 -184 -139 -291 -326 -320 -47 -8 -229 -10 -540 -8 -457
4 -470 4 -537 27 -56 18 -80 34 -126 80 -64 63 -94 129 -110 239 -5 37 -10
318 -10 625 0 620 2 599 -66 632 -42 20 -225 20 -271 0z"/>
<path d="M10825 3416 c-66 -21 -101 -43 -144 -92 -74 -84 -71 -48 -71 -966 0
-892 -2 -867 56 -905 42 -27 235 -31 284 -6 73 38 70 3 70 810 0 475 3 724 10
728 27 16 52 -11 106 -118 31 -62 115 -220 187 -352 397 -737 503 -927 539
-969 74 -87 193 -124 362 -113 119 8 178 29 236 86 64 63 94 114 658 1151 85
157 163 294 173 304 9 10 24 16 33 13 14 -5 16 -88 18 -734 3 -697 4 -729 22
-760 31 -50 56 -58 190 -58 140 0 165 10 191 78 14 37 15 132 13 862 -3 760
-5 823 -21 866 -26 67 -79 123 -145 156 -55 27 -61 28 -222 28 -157 0 -168 -1
-220 -26 -31 -14 -72 -40 -92 -58 -63 -55 -59 -48 -644 -1138 -107 -198 -202
-367 -210 -374 -11 -9 -23 -10 -41 -3 -29 10 -4 -35 -507 919 -142 270 -275
512 -295 538 -44 59 -119 111 -190 131 -67 20 -287 21 -346 2z"/>
<path d="M6023 865 c-45 -19 -73 -69 -73 -127 0 -47 -1 -48 -30 -48 -27 0 -30
-3 -30 -30 0 -27 3 -30 30 -30 l30 0 0 -186 0 -185 31 3 31 3 -1 182 -2 182
68 3 c66 3 68 4 71 31 l3 27 -65 0 -66 0 0 44 c0 66 44 99 103 77 26 -10 27
-9 27 19 0 47 -61 64 -127 35z"/>
<path d="M1408 846 c-57 -20 -83 -41 -102 -79 -35 -75 -11 -169 53 -202 17 -8
70 -26 119 -39 130 -35 152 -51 152 -111 0 -62 -47 -95 -135 -95 -62 0 -108
16 -159 55 l-35 26 -17 -25 c-20 -32 -13 -42 55 -80 134 -72 294 -48 346 55 8
15 15 50 15 78 0 39 -6 56 -26 81 -35 41 -64 55 -169 81 -105 26 -145 55 -145
104 0 101 139 134 252 60 l37 -25 21 30 21 29 -43 25 c-76 44 -171 57 -240 32z"/>
<path d="M5132 823 c3 -36 5 -38 41 -41 l37 -3 0 40 0 41 -41 0 -40 0 3 -37z"/>
<path d="M11222 823 c3 -37 4 -38 43 -38 39 0 40 1 40 35 0 34 -1 35 -43 38
l-43 3 3 -38z"/>
<path d="M12630 819 l0 -40 38 3 c35 3 37 5 40 41 l3 37 -40 0 -41 0 0 -41z"/>
<path d="M3992 638 c4 -238 13 -276 77 -331 35 -29 116 -57 166 -57 62 0 138
30 176 70 51 54 59 97 62 325 l2 200 -32 3 -31 3 -4 -208 c-3 -228 -9 -250
-71 -297 -42 -31 -159 -30 -203 1 -61 44 -69 75 -72 301 l-3 202 -36 0 -35 0
4 -212z"/>
<path d="M7342 633 c3 -190 5 -223 22 -253 41 -77 99 -115 188 -126 106 -12
200 34 243 119 24 50 25 56 25 265 l0 213 -32 -3 -33 -3 -5 -215 c-5 -202 -6
-217 -27 -246 -34 -47 -84 -67 -154 -62 -71 5 -105 27 -136 88 -22 41 -23 57
-23 242 l0 198 -36 0 -35 0 3 -217z"/>
<path d="M9460 555 l0 -295 30 0 30 0 0 230 c0 127 3 230 8 229 4 0 44 -57 90
-127 45 -70 92 -140 105 -156 l23 -28 105 158 104 159 3 -233 2 -232 35 0 35
0 0 295 0 295 -35 0 c-35 0 -38 -3 -144 -165 l-107 -166 -110 165 c-104 157
-111 166 -141 166 l-33 0 0 -295z"/>
<path d="M3447 824 c-4 -4 -7 -36 -7 -71 l0 -63 -31 0 c-27 0 -30 -3 -27 -27
2 -22 8 -28 28 -28 l25 0 5 -155 c6 -201 19 -223 126 -223 63 0 74 6 74 41 0
26 -2 27 -46 24 -78 -7 -84 6 -84 170 l0 138 65 0 65 0 0 30 0 30 -65 0 -64 0
-3 68 c-3 63 -4 67 -28 70 -14 2 -29 0 -33 -4z"/>
<path d="M5377 824 c-4 -4 -7 -36 -7 -71 l0 -63 -31 0 c-27 0 -30 -3 -27 -27
2 -22 9 -29 31 -31 l27 -3 0 -138 c0 -76 5 -152 11 -170 14 -40 60 -65 122
-64 53 1 79 17 75 47 -3 18 -9 20 -54 17 -77 -4 -84 10 -84 176 l0 132 68 3
c65 3 67 4 70 31 l3 27 -70 0 -70 0 -3 68 c-3 63 -4 67 -28 70 -14 2 -29 0
-33 -4z"/>
<path d="M11475 818 c-2 -7 -6 -38 -7 -68 -3 -52 -5 -55 -30 -58 -24 -3 -28
-8 -28 -33 0 -26 3 -29 30 -29 l30 0 0 -154 c0 -139 2 -156 21 -179 25 -33 84
-50 135 -39 34 7 39 12 42 38 l3 31 -48 -4 c-83 -8 -87 1 -91 166 l-3 140 68
3 c66 3 68 4 71 30 3 27 3 27 -65 30 l-68 3 -5 65 c-4 58 -7 65 -28 68 -12 2
-24 -3 -27 -10z"/>
<path d="M1955 684 c-16 -8 -38 -23 -47 -31 -17 -15 -18 -14 -18 10 0 24 -4
27 -35 27 l-35 0 2 -212 3 -213 33 -3 32 -3 0 146 c0 156 8 188 52 219 43 30
134 12 154 -31 5 -10 11 -88 14 -173 l5 -155 33 -3 32 -3 0 141 c0 159 10 199
59 224 34 18 84 21 111 6 38 -20 45 -51 50 -210 l5 -155 33 -3 34 -3 -4 175
c-3 158 -5 177 -24 203 -57 78 -185 83 -262 11 l-22 -22 -15 21 c-34 49 -132
68 -190 37z"/>
<path d="M2705 696 c-5 -2 -29 -9 -53 -17 -39 -11 -43 -15 -37 -38 4 -14 8
-27 10 -29 2 -2 24 4 49 12 118 40 216 0 216 -88 0 -22 -2 -23 -37 -15 -96 22
-190 4 -240 -46 -28 -28 -33 -40 -33 -83 0 -75 43 -120 132 -136 45 -8 113 8
148 36 l25 20 5 -24 c5 -18 13 -23 35 -23 l30 0 3 115 c5 197 -14 265 -83 300
-27 13 -146 24 -170 16z m139 -222 l46 -7 0 -41 c0 -74 -51 -116 -140 -116
-64 0 -100 30 -100 83 0 69 69 98 194 81z"/>
<path d="M3250 684 c-19 -8 -50 -31 -68 -52 l-32 -37 2 45 c3 44 2 45 -29 48
l-33 3 0 -216 0 -216 33 3 32 3 5 131 c5 125 6 132 34 168 29 38 78 66 116 66
16 0 20 6 20 35 0 30 -3 35 -22 35 -13 -1 -39 -7 -58 -16z"/>
<path d="M4755 685 c-16 -9 -40 -26 -52 -37 l-23 -21 0 31 c0 29 -3 32 -30 32
l-30 0 0 -215 0 -215 30 0 30 0 0 128 c0 143 9 188 44 221 47 44 151 36 179
-13 7 -13 14 -82 17 -176 l5 -155 33 -3 32 -3 0 163 c0 179 -8 212 -62 252
-37 27 -132 33 -173 11z"/>
<path d="M6336 685 c-82 -29 -137 -110 -137 -204 -1 -135 84 -223 216 -225 78
-1 148 33 190 93 25 36 30 54 33 115 3 59 0 81 -16 113 -53 103 -173 149 -286
108z m162 -65 c48 -30 72 -75 72 -140 0 -74 -24 -119 -80 -147 -24 -13 -56
-23 -71 -23 -42 0 -110 42 -130 80 -26 48 -25 135 1 178 42 69 139 94 208 52z"/>
<path d="M6912 683 c-19 -9 -43 -29 -55 -45 -28 -38 -37 -35 -37 12 0 38 -2
40 -30 40 l-30 0 0 -215 0 -215 28 0 29 0 6 119 c3 66 12 134 20 153 17 40 68
86 105 94 15 3 32 7 38 9 6 2 9 17 6 34 -5 36 -27 40 -80 14z"/>
<path d="M8023 685 c-39 -17 -73 -68 -73 -112 0 -52 38 -87 125 -112 42 -13
88 -33 103 -46 23 -20 25 -27 17 -51 -6 -16 -22 -34 -35 -42 -33 -17 -113 -7
-163 21 -38 21 -39 21 -53 2 -20 -26 -19 -29 24 -52 148 -83 321 -13 295 120
-8 39 -54 73 -131 97 -37 12 -77 27 -89 36 -28 18 -30 55 -5 77 25 22 101 22
148 0 35 -17 36 -17 50 2 20 27 13 38 -37 57 -54 21 -133 22 -176 3z"/>
<path d="M8468 680 c-79 -42 -127 -142 -114 -237 23 -169 214 -244 357 -141
l42 30 -22 21 -21 21 -27 -20 c-86 -64 -195 -47 -238 36 -31 60 -31 60 150 60
l165 0 0 39 c0 84 -50 168 -117 197 -46 20 -131 17 -175 -6z m174 -67 c22 -19
48 -72 48 -98 0 -13 -20 -15 -129 -15 -72 0 -132 3 -134 8 -9 15 14 70 39 96
47 47 129 51 176 9z"/>
<path d="M9014 674 c-23 -15 -48 -38 -57 -53 l-16 -26 -1 48 0 47 -35 0 -35 0
2 -212 3 -213 33 -3 32 -3 0 108 c0 59 5 126 11 148 15 53 69 103 120 111 36
6 39 9 39 40 0 31 -3 34 -28 34 -15 0 -46 -12 -68 -26z"/>
<path d="M10285 681 c-78 -36 -122 -96 -132 -179 -16 -135 84 -245 222 -245
173 0 276 174 195 332 -48 96 -183 139 -285 92z m167 -58 c49 -29 73 -79 73
-150 0 -47 -5 -68 -21 -89 -36 -49 -70 -68 -122 -68 -65 0 -111 28 -140 84
-56 109 18 240 135 240 25 0 58 -8 75 -17z"/>
<path d="M10840 679 c-19 -12 -40 -29 -47 -38 -11 -14 -12 -11 -13 17 0 30 -2
32 -35 32 l-35 0 2 -212 3 -213 33 -3 32 -3 0 146 c0 162 8 193 60 220 48 25
105 19 142 -14 l33 -29 5 -159 5 -158 33 -3 34 -3 -4 168 c-3 146 -6 172 -23
201 -41 69 -154 94 -225 51z"/>
<path d="M11863 679 c-86 -42 -127 -117 -121 -221 3 -55 9 -75 33 -110 96
-136 314 -121 388 27 57 116 4 260 -115 310 -53 22 -134 19 -185 -6z m177 -62
c99 -66 99 -223 0 -281 -70 -41 -152 -22 -204 48 -32 42 -30 149 3 195 45 62
139 80 201 38z"/>
<path d="M12455 686 c-17 -7 -43 -27 -57 -45 -15 -17 -29 -31 -32 -31 -3 0 -6
18 -6 40 0 38 -2 40 -30 40 l-30 0 0 -215 0 -215 29 0 29 0 4 123 c6 170 36
225 135 245 33 7 38 12 41 40 3 29 1 32 -25 32 -15 -1 -42 -7 -58 -14z"/>
<path d="M12995 688 c-11 -6 -32 -22 -47 -36 l-28 -26 0 32 c0 30 -2 32 -35
32 l-35 0 0 -215 0 -215 35 0 35 0 0 141 c0 110 4 149 16 175 38 81 158 87
204 12 18 -29 20 -51 20 -180 l0 -148 36 0 36 0 -4 168 c-3 188 -13 219 -78
253 -39 21 -123 25 -155 7z"/>
<path d="M13455 686 c-40 -17 -84 -63 -101 -103 -21 -48 -18 -137 6 -183 56
-111 202 -138 304 -58 l39 31 -5 -57 c-5 -60 -31 -99 -77 -117 -45 -18 -125
-12 -181 12 -51 22 -53 22 -66 4 -21 -28 -13 -38 52 -64 81 -33 175 -33 240 0
93 47 103 81 104 347 l0 192 -35 0 c-33 0 -35 -2 -35 -32 l0 -32 -28 27 c-48
46 -152 62 -217 33z m171 -62 c68 -33 96 -108 66 -178 -36 -79 -148 -117 -216
-72 -87 56 -88 194 -3 246 39 24 107 26 153 4z"/>
<path d="M5140 474 l0 -215 33 3 32 3 3 213 2 212 -35 0 -35 0 0 -216z"/>
<path d="M11230 475 l0 -215 35 0 35 0 0 215 0 215 -35 0 -35 0 0 -215z"/>
<path d="M12638 475 l3 -215 29 0 30 0 0 215 0 215 -32 0 -33 0 3 -215z"/>
</g>
</svg>
