<?xml version="1.0" standalone="no"?>
<!DOCTYPE svg PUBLIC "-//W3C//DTD SVG 20010904//EN"
 "http://www.w3.org/TR/2001/REC-SVG-20010904/DTD/svg10.dtd">
<svg version="1.0" xmlns="http://www.w3.org/2000/svg"
 width="1672.000000pt" height="941.000000pt" viewBox="0 0 1672.000000 941.000000"
 preserveAspectRatio="xMidYMid meet">

<g transform="translate(0.000000,941.000000) scale(0.100000,-0.100000)"
fill="#000000" stroke="none">
<path d="M8311 8225 c-18 -9 -62 -42 -97 -75 -322 -301 -766 -554 -1233 -704
-218 -71 -498 -132 -736 -161 -135 -17 -187 -39 -248 -104 -82 -88 -78 -32
-74 -1032 4 -981 -1 -905 72 -1146 l26 -83 85 0 c78 0 85 2 79 18 -24 58 -75
242 -91 327 -18 93 -19 160 -19 927 0 819 0 827 21 854 39 53 66 65 180 80
618 81 1179 280 1627 577 146 97 365 266 421 326 17 17 37 31 45 31 9 0 43
-24 76 -52 552 -481 1178 -756 1988 -874 127 -18 156 -32 186 -84 21 -37 21
-44 21 -848 0 -908 0 -909 -74 -1154 -20 -65 -36 -120 -36 -123 0 -3 38 -5 84
-5 l83 0 27 95 c73 257 69 197 73 1148 4 951 6 922 -60 1009 -46 61 -137 104
-247 118 -195 25 -490 90 -710 156 -436 130 -920 403 -1234 694 -107 99 -159
118 -235 85z"/>
<path d="M8048 7280 c-56 -17 -97 -51 -122 -102 l-26 -52 0 -503 c0 -490 1
-504 20 -523 29 -29 84 -27 115 5 l25 24 0 474 c0 465 0 475 21 501 l20 26
244 0 c259 0 284 -4 304 -47 8 -16 11 -171 11 -493 0 -457 1 -471 20 -490 12
-12 33 -20 55 -20 22 0 43 8 55 20 19 19 20 33 20 406 l0 385 23 -6 c43 -12
164 -75 243 -126 43 -28 120 -93 170 -143 230 -229 354 -546 354 -901 0 -114
2 -126 23 -150 19 -22 31 -26 99 -30 42 -2 85 -8 95 -13 41 -23 66 -61 71
-112 l5 -50 -685 0 c-668 0 -686 0 -711 -20 -13 -11 -28 -31 -31 -45 -8 -33
18 -83 47 -90 12 -3 347 -4 745 -3 l724 3 29 33 c28 31 29 35 29 140 0 86 -4
116 -21 152 -39 86 -117 146 -208 159 l-46 6 -7 120 c-30 547 -360 1018 -852
1215 l-90 37 -4 39 c-8 81 -65 153 -139 173 -45 13 -584 13 -625 1z"/>
<path d="M7746 7008 c-269 -117 -509 -342 -650 -608 -95 -182 -149 -377 -163
-591 l-8 -114 -49 -7 c-92 -13 -191 -99 -216 -186 -15 -56 -13 -208 4 -241 33
-62 25 -61 476 -61 249 0 419 4 430 10 25 13 41 65 30 94 -21 56 -23 56 -422
56 l-368 0 0 40 c0 90 47 128 168 137 109 9 108 6 115 209 13 360 118 621 342
849 110 112 184 166 320 235 l90 46 3 82 c3 97 4 97 -102 50z"/>
<path d="M8013 5750 c-33 -14 -45 -37 -136 -285 -47 -126 -126 -341 -177 -477
l-92 -248 -919 0 c-651 0 -925 -3 -942 -11 -49 -22 -60 -83 -23 -126 l24 -28
959 0 c527 0 970 3 985 8 15 4 33 17 39 29 7 12 74 188 150 391 76 202 142
375 147 383 6 10 32 -71 81 -248 153 -555 204 -741 266 -973 66 -246 79 -275
125 -275 32 0 67 39 93 102 14 35 62 146 107 248 45 102 100 229 122 283 22
53 44 97 48 97 4 0 76 -123 159 -274 125 -227 156 -276 181 -286 36 -15 82 -5
107 23 11 12 73 123 137 247 65 124 122 229 126 234 5 5 311 9 705 10 l697 1
19 24 c27 33 25 86 -6 116 l-24 25 -728 0 c-632 0 -731 -2 -750 -15 -12 -8
-70 -110 -130 -225 -59 -116 -110 -210 -113 -210 -3 0 -76 128 -163 284 -87
156 -165 290 -173 297 -27 22 -82 16 -108 -11 -13 -14 -72 -136 -130 -272 -58
-135 -117 -270 -130 -299 l-25 -52 -15 54 c-57 206 -125 451 -185 674 -38 143
-97 360 -130 481 -34 122 -61 229 -61 239 0 22 -54 75 -77 74 -10 0 -28 -4
-40 -9z"/>
<path d="M6270 4392 c0 -28 150 -250 278 -412 91 -114 391 -417 519 -522 334
-277 764 -547 1133 -713 172 -77 210 -73 465 59 738 380 1309 856 1662 1386
74 111 123 192 123 203 0 4 -39 7 -87 7 l-88 0 -74 -111 c-114 -172 -220 -299
-406 -485 -291 -291 -623 -536 -1049 -774 -205 -114 -328 -170 -373 -170 -44
0 -342 143 -543 260 -554 323 -1047 765 -1321 1184 l-63 96 -88 0 c-48 0 -88
-3 -88 -8z"/>
<path d="M5820 2431 c-112 -34 -170 -115 -170 -237 0 -100 36 -161 120 -202
l55 -27 323 -5 324 -5 19 -24 c12 -15 19 -39 19 -66 0 -35 -5 -48 -26 -64 -26
-20 -37 -21 -406 -21 -242 0 -386 -4 -399 -10 -15 -9 -19 -22 -19 -70 0 -48 4
-61 19 -70 13 -6 160 -10 409 -10 424 0 459 4 523 57 67 57 96 175 68 276 -14
50 -64 106 -119 131 -42 20 -68 21 -368 26 l-324 5 -19 24 c-28 35 -25 92 7
122 l26 24 371 2 c418 2 397 -2 397 79 0 76 9 74 -425 73 -209 0 -391 -4 -405
-8z"/>
<path d="M7022 2424 c-22 -15 -22 -17 -22 -303 l0 -287 26 -52 c32 -64 90
-116 158 -139 45 -16 89 -18 351 -18 340 0 362 4 442 77 77 72 83 104 83 428
0 277 0 279 -22 294 -31 22 -91 20 -119 -2 -22 -19 -22 -21 -23 -278 -1 -292
-3 -302 -76 -343 -36 -20 -52 -21 -291 -21 -236 0 -256 1 -287 20 -18 11 -41
34 -52 52 -18 31 -20 51 -20 284 0 239 -1 253 -21 278 -16 21 -29 26 -63 26
-23 0 -52 -7 -64 -16z"/>
<path d="M8402 2424 c-22 -15 -22 -17 -22 -293 0 -324 4 -346 80 -422 37 -37
62 -52 115 -68 61 -19 92 -21 339 -21 277 0 331 6 402 43 41 21 92 80 118 136
20 43 21 62 21 325 l0 278 -24 19 c-31 26 -91 25 -125 -2 l-26 -20 0 -258 c0
-252 -1 -259 -23 -292 -43 -65 -62 -69 -348 -69 -250 0 -257 1 -290 23 -65 43
-69 62 -69 345 0 239 -1 253 -20 272 -25 25 -95 27 -128 4z"/>
<path d="M9835 2426 c-16 -7 -39 -23 -50 -36 -19 -21 -20 -38 -23 -377 -3
-407 -6 -393 77 -393 26 0 56 7 69 16 22 15 22 16 22 322 1 249 3 304 13 290
7 -9 87 -145 177 -304 154 -269 167 -288 205 -305 75 -34 173 -21 218 28 9 11
88 136 175 279 191 312 185 304 192 304 4 0 6 -135 6 -301 -1 -343 -5 -329 85
-329 82 0 79 -16 79 380 0 250 -3 357 -12 375 -16 35 -77 65 -130 65 -49 0
-114 -27 -142 -58 -10 -12 -98 -153 -195 -313 -97 -161 -180 -292 -186 -292
-5 0 -84 129 -175 287 -91 158 -176 300 -190 317 -43 52 -149 74 -215 45z"/>
<path d="M5720 1373 c-48 -19 -66 -75 -35 -107 8 -8 39 -22 69 -30 45 -13 66
-30 66 -51 0 -2 -7 -11 -16 -19 -20 -20 -66 -20 -104 -1 -28 15 -48 6 -35 -15
10 -17 82 -33 118 -26 46 9 69 36 65 77 -3 37 -20 49 -98 71 -47 14 -62 37
-40 63 15 18 60 19 95 3 31 -14 45 -3 23 18 -16 17 -83 27 -108 17z"/>
<path d="M7047 1374 c-4 -4 -7 -49 -7 -99 0 -103 -12 -125 -66 -125 -58 0 -74
31 -74 139 0 65 -3 81 -15 81 -12 0 -15 -17 -15 -91 0 -101 7 -122 50 -144 63
-32 132 -8 150 53 14 45 9 184 -6 189 -5 2 -13 0 -17 -3z"/>
<path d="M7372 1364 c4 -21 22 -23 26 -1 2 10 -3 17 -13 17 -10 0 -15 -6 -13
-16z"/>
<path d="M7744 1355 c-8 -13 -13 -29 -9 -35 4 -7 -2 -14 -14 -17 -24 -6 -29
-23 -6 -23 11 0 15 -18 17 -77 2 -61 6 -78 18 -78 12 0 15 16 16 75 1 68 3 75
23 78 27 4 28 22 1 22 -11 0 -23 7 -26 15 -8 20 13 45 37 45 11 0 19 5 19 10
0 6 -13 10 -30 10 -20 0 -35 -8 -46 -25z"/>
<path d="M8324 1366 c-3 -9 -4 -56 -3 -106 5 -106 20 -129 91 -137 37 -4 49
-1 76 22 l33 27 -3 102 c-4 129 -21 129 -28 0 -4 -80 -8 -98 -24 -110 -22 -15
-64 -18 -84 -6 -19 13 -32 70 -32 144 0 64 -13 97 -26 64z"/>
<path d="M9255 1368 c-11 -29 0 -241 12 -245 9 -3 13 21 15 89 l3 93 38 -72
c20 -40 43 -73 50 -73 7 0 28 32 47 70 19 39 36 70 39 70 3 0 6 -39 6 -87 0
-72 3 -88 15 -88 12 0 16 22 18 123 3 122 3 124 -18 120 -16 -2 -33 -24 -60
-76 -21 -40 -42 -74 -45 -75 -4 -1 -25 34 -48 77 -42 80 -62 100 -72 74z"/>
<path d="M10004 1369 c-8 -14 11 -33 25 -25 16 10 13 36 -3 36 -8 0 -18 -5
-22 -11z"/>
<path d="M10594 1369 c-8 -14 11 -33 25 -25 6 4 11 14 11 22 0 16 -26 19 -36
3z"/>
<path d="M7480 1336 c0 -15 -7 -29 -15 -32 -8 -4 -15 -10 -15 -15 0 -5 7 -9
15 -9 12 0 15 -14 15 -69 0 -74 12 -95 51 -89 31 4 36 26 7 30 -21 3 -23 9
-26 66 -3 61 -2 62 23 62 14 0 25 5 25 10 0 6 -11 10 -24 10 -19 0 -25 6 -28
27 -4 36 -28 43 -28 9z"/>
<path d="M10116 1353 c-3 -3 -6 -17 -6 -30 0 -14 -6 -23 -15 -23 -8 0 -15 -4
-15 -10 0 -5 7 -10 15 -10 12 0 15 -14 15 -70 0 -65 2 -71 24 -82 26 -11 56
-5 56 11 0 5 -10 11 -22 13 -21 3 -23 9 -26 66 -3 61 -2 62 23 62 14 0 25 5
25 10 0 6 -11 10 -25 10 -20 0 -25 5 -25 24 0 26 -12 40 -24 29z"/>
<path d="M6630 1325 c0 -16 -6 -25 -15 -25 -8 0 -15 -4 -15 -10 0 -5 7 -10 15
-10 12 0 15 -14 15 -64 0 -71 14 -96 56 -96 31 0 32 27 2 32 -21 3 -23 9 -26
66 -3 61 -2 62 23 62 31 0 33 17 3 22 -15 2 -24 11 -26 26 -5 31 -32 29 -32
-3z"/>
<path d="M5917 1303 c-4 -3 -7 -46 -7 -95 0 -72 3 -88 15 -88 12 0 15 14 15
64 0 71 14 96 55 96 33 0 45 -27 45 -99 0 -48 3 -61 15 -61 12 0 15 14 15 63
0 76 14 100 55 95 30 -3 30 -4 35 -78 4 -56 9 -75 19 -75 11 0 14 16 12 75 -1
62 -5 78 -23 93 -24 20 -57 22 -83 3 -16 -11 -22 -11 -46 3 -23 13 -33 14 -60
4 -21 -8 -37 -9 -44 -3 -7 5 -15 7 -18 3z"/>
<path d="M6282 1298 c-24 -12 -24 -36 -1 -29 49 14 73 13 86 -5 21 -28 16 -34
-30 -34 -51 0 -87 -22 -87 -54 0 -46 55 -70 102 -45 15 8 22 8 28 -1 16 -27
30 4 30 66 0 56 -4 68 -25 89 -26 27 -64 31 -103 13z m95 -104 c6 -19 -27 -44
-58 -44 -37 0 -50 27 -23 47 22 16 76 14 81 -3z"/>
<path d="M6546 1303 c-4 -4 -21 -7 -39 -8 l-32 0 0 -85 c0 -69 3 -85 15 -85
11 0 16 17 20 70 5 69 6 70 38 80 18 5 31 14 29 19 -4 13 -22 18 -31 9z"/>
<path d="M7152 1301 c-20 -12 -12 -176 8 -176 11 0 16 15 18 65 3 71 13 90 47
90 34 0 44 -19 47 -90 2 -50 7 -65 18 -65 12 0 16 15 18 67 3 61 0 71 -22 93
-26 26 -60 32 -86 15 -8 -5 -19 -5 -25 0 -6 5 -16 5 -23 1z"/>
<path d="M7375 1298 c-10 -25 -1 -173 10 -171 13 4 19 163 6 176 -7 7 -12 5
-16 -5z"/>
<path d="M7890 1298 c-55 -29 -66 -104 -21 -149 40 -40 82 -39 123 1 27 27 30
36 25 72 -3 22 -14 49 -24 59 -24 25 -72 32 -103 17z m81 -34 c7 -9 13 -31 13
-49 0 -42 -19 -65 -55 -65 -31 0 -59 31 -59 65 0 54 69 87 101 49z"/>
<path d="M8122 1294 c-12 -8 -22 -10 -22 -5 0 6 -7 11 -15 11 -13 0 -15 -14
-13 -87 2 -69 6 -88 18 -88 11 0 14 11 12 45 -4 60 11 98 43 106 14 3 25 12
25 20 0 18 -20 18 -48 -2z"/>
<path d="M8600 1292 c-18 -14 -21 -25 -16 -45 5 -21 16 -29 54 -40 35 -10 47
-19 47 -33 0 -14 -8 -20 -33 -22 -18 -2 -39 2 -47 8 -10 8 -15 8 -20 0 -17
-28 59 -50 108 -31 54 21 24 101 -39 101 -26 0 -49 24 -39 41 5 7 24 9 51 6
31 -3 44 -1 44 8 0 28 -78 33 -110 7z"/>
<path d="M8808 1295 c-15 -9 -31 -30 -38 -50 -26 -79 51 -148 129 -115 42 17
29 31 -22 24 -34 -5 -45 -2 -61 14 -27 30 -11 44 48 42 28 -2 57 -2 64 -1 22
2 13 42 -17 72 -32 32 -62 36 -103 14z m86 -31 c27 -26 18 -34 -39 -34 -59 0
-60 1 -45 31 13 23 62 26 84 3z"/>
<path d="M8995 1299 c-11 -29 -1 -172 13 -177 9 -3 12 13 12 55 0 65 19 103
51 103 10 0 19 7 19 15 0 19 -20 19 -45 1 -17 -12 -21 -12 -31 3 -11 14 -13
15 -19 0z"/>
<path d="M9604 1300 c-32 -13 -54 -50 -54 -88 0 -45 46 -92 90 -92 45 0 90 47
90 94 0 64 -69 111 -126 86z m77 -36 c7 -9 13 -31 13 -49 0 -42 -19 -65 -54
-65 -35 0 -54 23 -54 65 0 42 19 65 54 65 15 0 34 -7 41 -16z"/>
<path d="M9785 1298 c-11 -28 -1 -171 13 -176 9 -3 12 14 12 61 0 69 16 97 56
97 34 0 44 -21 44 -92 0 -55 3 -68 15 -68 13 0 15 14 13 82 -3 78 -5 83 -30
97 -22 13 -33 14 -59 4 -24 -9 -36 -10 -46 -2 -9 8 -14 8 -18 -3z"/>
<path d="M10010 1215 c0 -73 3 -96 13 -92 8 2 12 30 12 92 0 62 -4 90 -12 93
-10 3 -13 -20 -13 -93z"/>
<path d="M10273 1300 c-26 -11 -53 -59 -53 -94 0 -36 39 -76 81 -82 28 -5 41
-1 67 21 27 22 32 34 32 70 0 36 -5 48 -31 69 -32 27 -58 31 -96 16z m81 -42
c32 -45 7 -108 -43 -108 -38 0 -51 17 -51 67 0 29 5 45 18 52 28 17 60 12 76
-11z"/>
<path d="M10510 1300 c-8 -5 -25 -7 -38 -3 -23 5 -23 5 -20 -83 2 -66 6 -89
16 -89 10 0 15 20 18 64 5 69 16 91 45 91 11 0 19 7 19 15 0 17 -18 19 -40 5z"/>
<path d="M10697 1303 c-4 -3 -7 -46 -7 -95 0 -72 3 -88 15 -88 12 0 15 14 15
64 0 71 14 96 55 96 33 0 45 -27 45 -100 0 -45 3 -61 13 -58 7 3 13 29 15 73
3 59 0 71 -19 91 -24 26 -49 30 -80 13 -14 -7 -24 -7 -33 0 -7 6 -16 8 -19 4z"/>
<path d="M10950 1297 c-101 -51 -31 -209 73 -163 13 6 17 4 17 -12 0 -32 -25
-45 -75 -39 -47 7 -60 -4 -26 -23 35 -18 86 -12 109 13 20 21 22 34 22 130 0
97 -7 126 -25 97 -4 -7 -12 -7 -25 0 -24 13 -40 12 -70 -3z m78 -29 c17 -17
15 -84 -4 -102 -54 -54 -119 39 -71 102 12 15 59 16 75 0z"/>
<path d="M10598 1293 c-2 -5 -4 -44 -3 -88 0 -64 3 -80 15 -80 12 0 16 18 18
88 2 71 0 87 -12 87 -8 0 -16 -3 -18 -7z"/>
</g>
</svg>
